0
SECTION
2
HEADER
9
$INSUNITS
70
4
9
$ACADVER
1
AC1014
9
$HANDSEED
5
FFFF
0
ENDSEC
0
SECTION
2
TABLES
0
TABLE
2
VPORT
5
8
100
AcDbSymbolTable
0
ENDTAB
0
TABLE
2
LTYPE
5
5
100
AcDbSymbolTable
0
LTYPE
5
14
100
AcDbSymbolTableRecord
100
AcDbLinetypeTableRecord
2
BYBLOCK
70
0
0
LTYPE
5
15
100
AcDbSymbolTableRecord
100
AcDbLinetypeTableRecord
2
BYLAYER
70
0
0
ENDTAB
0
TABLE
2
LAYER
5
2
100
AcDbSymbolTable
70
2
0
LAYER
5
50
100
AcDbSymbolTableRecord
100
AcDbLayerTableRecord
2
0
70
0
6
CONTINUOUS
0
ENDTAB
0
TABLE
2
STYLE
5
3
100
AcDbSymbolTable
70
1
0
STYLE
5
11
100
AcDbSymbolTableRecord
100
AcDbTextStyleTableRecord
2
STANDARD
70
0
0
ENDTAB
0
TABLE
2
VIEW
5
6
100
AcDbSymbolTable
70
0
0
ENDTAB
0
TABLE
2
UCS
5
7
100
AcDbSymbolTable
70
0
0
ENDTAB
0
TABLE
2
APPID
5
9
100
AcDbSymbolTable
70
2
0
APPID
5
12
100
AcDbSymbolTableRecord
100
AcDbRegAppTableRecord
2
ACAD
70
0
0
ENDTAB
0
TABLE
2
DIMSTYLE
5
A
100
AcDbSymbolTable
70
1
0
ENDTAB
0
TABLE
2
BLOCK_RECORD
5
1
100
AcDbSymbolTable
70
1
0
BLOCK_RECORD
5
1F
100
AcDbSymbolTableRecord
100
AcDbBlockTableRecord
2
*MODEL_SPACE
0
BLOCK_RECORD
5
1B
100
AcDbSymbolTableRecord
100
AcDbBlockTableRecord
2
*PAPER_SPACE
0
ENDTAB
0
ENDSEC
0
SECTION
2
BLOCKS
0
BLOCK
5
20
100
AcDbEntity
100
AcDbBlockBegin
2
*MODEL_SPACE
0
ENDBLK
5
21
100
AcDbEntity
100
AcDbBlockEnd
0
BLOCK
5
1C
100
AcDbEntity
100
AcDbBlockBegin
2
*PAPER_SPACE
0
ENDBLK
5
1D
100
AcDbEntity
100
AcDbBlockEnd
0
ENDSEC
0
SECTION
2
ENTITIES
0
LWPOLYLINE
5
100
100
AcDbEntity
8
0
100
AcDbPolyline
90
4
70
1
43
0.0
10
-58.999999999999993
20
-7.9999999999999964
10
-53.999999999999993
20
-7.9999999999999964
10
-53.999999999999993
20
-22.999999999999989
10
-58.999999999999993
20
-22.999999999999989
0
LWPOLYLINE
5
101
100
AcDbEntity
8
0
100
AcDbPolyline
90
4
70
1
43
0.0
10
-7.9999999999999805
20
58.999999999999993
10
-7.9999999999999805
20
53.999999999999993
10
-22.999999999999968
20
54
10
-22.999999999999979
20
58.999999999999986
0
CIRCLE
5
102
100
AcDbEntity
8
0
100
AcDbCircle
10
-15.999999999999998
20
-16.000000000000004
30
0
40
1.25
210
0
220
-0
230
1
0
LWPOLYLINE
5
103
100
AcDbEntity
8
0
100
AcDbPolyline
90
4
70
1
43
0.0
10
-58.999999999999993
20
8
10
-58.999999999999993
20
23
10
-53.999999999999993
20
23
10
-53.999999999999993
20
8
0
LWPOLYLINE
5
104
100
AcDbEntity
8
0
100
AcDbPolyline
90
4
70
1
43
0.0
10
58.999999999999993
20
7.9999999999999876
10
53.999999999999993
20
7.9999999999999893
10
53.999999999999993
20
22.999999999999972
10
58.999999999999979
20
22.999999999999979
0
LWPOLYLINE
5
105
100
AcDbEntity
8
0
100
AcDbPolyline
90
4
70
1
43
0.0
10
23
20
53.999999999999986
10
8.000000000000016
20
53.999999999999993
10
8.000000000000016
20
58.999999999999993
10
23.000000000000014
20
59
0
LWPOLYLINE
5
106
100
AcDbEntity
8
0
100
AcDbPolyline
90
4
70
1
43
0.0
10
7.9999999999999805
20
-58.999999999999993
10
7.9999999999999805
20
-53.999999999999993
10
22.999999999999964
20
-54.000000000000014
10
22.999999999999979
20
-59
0
LWPOLYLINE
5
107
100
AcDbEntity
8
0
100
AcDbPolyline
90
4
70
1
43
0.0
10
-23.000000000000004
20
-54
10
-8.000000000000016
20
-53.999999999999993
10
-8.000000000000016
20
-58.999999999999993
10
-23
20
-58.999999999999993
0
CIRCLE
5
108
100
AcDbEntity
8
0
100
AcDbCircle
10
16
20
16
30
0
40
1.25
210
0
220
-0
230
1
0
CIRCLE
5
109
100
AcDbEntity
8
0
100
AcDbCircle
10
-15.999999999999998
20
16.000000000000004
30
0
40
1.25
210
0
220
-0
230
1
0
CIRCLE
5
110
100
AcDbEntity
8
0
100
AcDbCircle
10
15.999999999999998
20
-16.000000000000004
30
0
40
1.25
210
0
220
-0
230
1
0
LWPOLYLINE
5
111
100
AcDbEntity
8
0
100
AcDbPolyline
90
4
70
1
43
0.0
10
53.999999999999979
20
-23.000000000000004
10
53.999999999999993
20
-8.0000000000000071
10
58.999999999999993
20
-8.0000000000000089
10
58.999999999999993
20
-23.000000000000004
0
LWPOLYLINE
5
112
100
AcDbEntity
8
0
100
AcDbPolyline
90
4
70
1
43
0.0
10
74.999999999999986
20
74.999999999999986
10
-75.000000000000014
20
74.999999999999986
10
-75.000000000000014
20
-75.000000000000014
10
74.999999999999986
20
-75
0
CIRCLE
5
113
100
AcDbEntity
8
0
100
AcDbCircle
10
88.075870830898864
20
15.454805769695326
30
0
40
1.4749999999999996
210
0
220
-0
230
1
0
CIRCLE
5
114
100
AcDbEntity
8
0
100
AcDbCircle
10
88.07587083089885
20
-15.545194230304674
30
0
40
1.4749999999999996
210
0
220
-0
230
1
0
CIRCLE
5
115
100
AcDbEntity
8
0
100
AcDbCircle
10
119.07587083089885
20
-15.545194230304681
30
0
40
1.4749999999999996
210
0
220
-0
230
1
0
CIRCLE
5
116
100
AcDbEntity
8
0
100
AcDbCircle
10
103.57587083089885
20
-0.045194230304677063
30
0
40
11
210
0
220
-0
230
1
0
CIRCLE
5
117
100
AcDbEntity
8
0
100
AcDbCircle
10
119.07587083089886
20
15.454805769695316
30
0
40
1.4749999999999996
210
0
220
-0
230
1
0
LWPOLYLINE
5
118
100
AcDbEntity
8
0
100
AcDbPolyline
90
12
70
1
43
0.0
10
95.57587083089885
20
81.954805769695326
10
80.57587083089885
20
81.954805769695326
10
80.57587083089885
20
-82.045194230304688
10
95.57587083089885
20
-82.045194230304688
10
95.57587083089885
20
-77.045194230304688
10
111.57587083089885
20
-77.045194230304688
10
111.57587083089885
20
-82.045194230304688
10
126.57587083089886
20
-82.045194230304688
10
126.57587083089886
20
81.954805769695326
10
111.57587083089885
20
81.954805769695326
10
111.57587083089885
20
76.954805769695326
10
95.57587083089885
20
76.954805769695326
0
CIRCLE
5
119
100
AcDbEntity
8
0
100
AcDbCircle
10
28.906830448617725
20
-124.04198543114546
30
0
40
1.4749999999999996
210
0
220
-0
230
1
0
CIRCLE
5
120
100
AcDbEntity
8
0
100
AcDbCircle
10
59.906830448617718
20
-124.04198543114549
30
0
40
1.4749999999999996
210
0
220
-0
230
1
0
CIRCLE
5
121
100
AcDbEntity
8
0
100
AcDbCircle
10
59.906830448617747
20
-93.041985431145491
30
0
40
1.4749999999999996
210
0
220
-0
230
1
0
CIRCLE
5
122
100
AcDbEntity
8
0
100
AcDbCircle
10
44.40683044861774
20
-108.54198543114549
30
0
40
11
210
0
220
-0
230
1
0
CIRCLE
5
123
100
AcDbEntity
8
0
100
AcDbCircle
10
28.906830448617747
20
-93.041985431145491
30
0
40
1.4749999999999996
210
0
220
-0
230
1
0
LWPOLYLINE
5
124
100
AcDbEntity
8
0
100
AcDbPolyline
90
12
70
1
43
0.0
10
-37.593169551382282
20
-116.54198543114548
10
-37.593169551382282
20
-131.54198543114549
10
126.40683044861777
20
-131.54198543114552
10
126.40683044861775
20
-116.54198543114552
10
121.40683044861775
20
-116.54198543114552
10
121.40683044861774
20
-100.54198543114551
10
126.40683044861774
20
-100.54198543114551
10
126.40683044861774
20
-85.541985431145505
10
-37.593169551382282
20
-85.541985431145463
10
-37.593169551382275
20
-100.54198543114546
10
-32.593169551382275
20
-100.54198543114546
10
-32.593169551382282
20
-116.54198543114548
0
CIRCLE
5
125
100
AcDbEntity
8
0
100
AcDbCircle
10
-139.14458588864966
20
-118.49573406687925
30
0
40
1.4749999999999996
210
0
220
-0
230
1
0
CIRCLE
5
126
100
AcDbEntity
8
0
100
AcDbCircle
10
-108.14458588864966
20
-118.49573406687925
30
0
40
1.4749999999999996
210
0
220
-0
230
1
0
CIRCLE
5
127
100
AcDbEntity
8
0
100
AcDbCircle
10
-108.14458588864966
20
-87.495734066879265
30
0
40
1.4749999999999996
210
0
220
-0
230
1
0
CIRCLE
5
128
100
AcDbEntity
8
0
100
AcDbCircle
10
-123.64458588864966
20
-102.99573406687925
30
0
40
11
210
0
220
-0
230
1
0
CIRCLE
5
129
100
AcDbEntity
8
0
100
AcDbCircle
10
-139.14458588864966
20
-87.495734066879237
30
0
40
1.4749999999999996
210
0
220
-0
230
1
0
LWPOLYLINE
5
130
100
AcDbEntity
8
0
100
AcDbPolyline
90
12
70
1
43
0.0
10
-205.64458588864966
20
-110.99573406687924
10
-205.64458588864966
20
-125.99573406687924
10
-41.644585888649672
20
-125.99573406687927
10
-41.644585888649658
20
-110.99573406687927
10
-46.644585888649658
20
-110.99573406687927
10
-46.644585888649637
20
-94.995734066879294
10
-41.644585888649637
20
-94.99573406687928
10
-41.644585888649637
20
-79.995734066879265
10
-205.64458588864966
20
-79.995734066879223
10
-205.64458588864966
20
-94.995734066879265
10
-200.64458588864966
20
-94.995734066879237
10
-200.64458588864966
20
-110.99573406687924
0
LWPOLYLINE
5
131
100
AcDbEntity
8
0
100
AcDbPolyline
90
4
70
1
43
0.0
10
-214.84966333588173
20
-7.4453748635733845
10
-209.84966333588173
20
-7.4453748635733845
10
-209.84966333588173
20
-22.445374863573377
10
-214.84966333588173
20
-22.445374863573377
0
LWPOLYLINE
5
132
100
AcDbEntity
8
0
100
AcDbPolyline
90
4
70
1
43
0.0
10
-163.8496633358817
20
59.554625136426608
10
-163.8496633358817
20
54.554625136426615
10
-178.8496633358817
20
54.554625136426615
10
-178.8496633358817
20
59.554625136426587
0
CIRCLE
5
133
100
AcDbEntity
8
0
100
AcDbCircle
10
-171.84966333588176
20
-15.445374863573392
30
0
40
1.25
210
0
220
-0
230
1
0
LWPOLYLINE
5
134
100
AcDbEntity
8
0
100
AcDbPolyline
90
4
70
1
43
0.0
10
-214.84966333588173
20
8.5546251364266119
10
-214.84966333588173
20
23.554625136426608
10
-209.84966333588173
20
23.554625136426608
10
-209.84966333588173
20
8.5546251364266119
0
LWPOLYLINE
5
135
100
AcDbEntity
8
0
100
AcDbPolyline
90
4
70
1
43
0.0
10
-96.849663335881758
20
8.554625136426603
10
-101.84966333588176
20
8.5546251364266013
10
-101.84966333588176
20
23.554625136426573
10
-96.849663335881758
20
23.554625136426594
0
LWPOLYLINE
5
136
100
AcDbEntity
8
0
100
AcDbPolyline
90
4
70
1
43
0.0
10
-132.84966333588176
20
54.554625136426608
10
-147.84966333588173
20
54.554625136426608
10
-147.84966333588173
20
59.554625136426594
10
-132.8496633358817
20
59.554625136426615
0
LWPOLYLINE
5
137
100
AcDbEntity
8
0
100
AcDbPolyline
90
4
70
1
43
0.0
10
-147.84966333588176
20
-58.445374863573385
10
-147.84966333588176
20
-53.445374863573363
10
-132.84966333588176
20
-53.445374863573399
10
-132.84966333588176
20
-58.445374863573385
0
LWPOLYLINE
5
138
100
AcDbEntity
8
0
100
AcDbPolyline
90
4
70
1
43
0.0
10
-178.84966333588176
20
-53.445374863573399
10
-163.84966333588176
20
-53.445374863573385
10
-163.84966333588176
20
-58.445374863573385
10
-178.84966333588176
20
-58.445374863573385
0
CIRCLE
5
139
100
AcDbEntity
8
0
100
AcDbCircle
10
-139.84966333588173
20
16.554625136426612
30
0
40
1.25
210
0
220
-0
230
1
0
CIRCLE
5
140
100
AcDbEntity
8
0
100
AcDbCircle
10
-171.84966333588176
20
16.554625136426615
30
0
40
1.25
210
0
220
-0
230
1
0
CIRCLE
5
141
100
AcDbEntity
8
0
100
AcDbCircle
10
-139.84966333588173
20
-15.445374863573392
30
0
40
1.25
210
0
220
-0
230
1
0
LWPOLYLINE
5
142
100
AcDbEntity
8
0
100
AcDbPolyline
90
4
70
1
43
0.0
10
-101.84966333588176
20
-22.445374863573392
10
-101.84966333588176
20
-7.4453748635733907
10
-96.849663335881758
20
-7.4453748635733952
10
-96.849663335881758
20
-22.445374863573392
0
LWPOLYLINE
5
143
100
AcDbEntity
8
0
100
AcDbPolyline
90
4
70
1
43
0.0
10
-80.849663335881729
20
75.554625136426608
10
-230.84966333588176
20
75.554625136426608
10
-230.84966333588176
20
-74.445374863573392
10
-80.849663335881758
20
-74.445374863573392
0
CIRCLE
5
144
100
AcDbEntity
8
0
100
AcDbCircle
10
-272.0448830922619
20
-29.084245526715677
30
0
40
1.4749999999999996
210
0
220
-0
230
1
0
CIRCLE
5
145
100
AcDbEntity
8
0
100
AcDbCircle
10
-272.0448830922619
20
-60.084245526715691
30
0
40
1.4749999999999996
210
0
220
-0
230
1
0
CIRCLE
5
146
100
AcDbEntity
8
0
100
AcDbCircle
10
-241.0448830922619
20
-60.084245526715733
30
0
40
1.4749999999999996
210
0
220
-0
230
1
0
CIRCLE
5
147
100
AcDbEntity
8
0
100
AcDbCircle
10
-256.54488309226195
20
-44.584245526715726
30
0
40
11
210
0
220
-0
230
1
0
CIRCLE
5
148
100
AcDbEntity
8
0
100
AcDbCircle
10
-241.04488309226187
20
-29.084245526715719
30
0
40
1.4749999999999996
210
0
220
-0
230
1
0
LWPOLYLINE
5
149
100
AcDbEntity
8
0
100
AcDbPolyline
90
12
70
1
43
0.0
10
-264.5448830922619
20
37.415754473284309
10
-279.5448830922619
20
37.415754473284309
10
-279.54488309226201
20
-126.5842455267157
10
-264.54488309226201
20
-126.5842455267157
10
-264.54488309226201
20
-121.5842455267157
10
-248.54488309226198
20
-121.58424552671573
10
-248.54488309226198
20
-126.58424552671573
10
-233.54488309226198
20
-126.58424552671575
10
-233.5448830922619
20
37.415754473284309
10
-248.5448830922619
20
37.415754473284302
10
-248.5448830922619
20
32.415754473284302
10
-264.5448830922619
20
32.415754473284309
0
ENDSEC
0
SECTION
2
OBJECTS
0
DICTIONARY
5
C
100
AcDbDictionary
3
ACAD_GROUP
350
D
3
ACAD_MLINESTYLE
350
17
0
DICTIONARY
5
D
100
AcDbDictionary
0
DICTIONARY
5
1A
330
C
100
AcDbDictionary
0
DICTIONARY
5
17
100
AcDbDictionary
0
ENDSEC
0
EOF
