<?xml version="1.0" encoding="UTF-8" standalone="yes"?>
<!-- Created with sK1/UniConvertor (http://sk1project.org/) -->
<svg xmlns="http://www.w3.org/2000/svg" xmlns:xlink="http://www.w3.org/1999/xlink"
  width="595.276pt" height="841.89pt" viewBox="0 0 595.276 841.89"
  fill-rule="evenodd">
<g>
<path style="stroke:#000000; stroke-width:0.850394; stroke-linejoin:round; stroke-linecap:round; fill:none" d="M -59 849.89L -54 849.89L -54 864.89L -59 864.89L -59 849.89z"/>
<path style="stroke:#000000; stroke-width:0.850394; stroke-linejoin:round; stroke-linecap:round; fill:none" d="M -8 782.89L -8 787.89L -23 787.89L -23 782.89L -8 782.89z"/>
<path style="stroke:#000000; stroke-width:0.850394; stroke-linejoin:round; stroke-linecap:round; fill:none" d="M -14.75 857.89C -14.75 857.2 -15.31 856.64 -16 856.64C -16.69 856.64 -17.25 857.2 -17.25 857.89C -17.25 858.58 -16.69 859.14 -16 859.14C -15.31 859.14 -14.75 858.58 -14.75 857.89z"/>
<path style="stroke:#000000; stroke-width:0.850394; stroke-linejoin:round; stroke-linecap:round; fill:none" d="M -59 833.89L -59 818.89L -54 818.89L -54 833.89L -59 833.89z"/>
<path style="stroke:#000000; stroke-width:0.850394; stroke-linejoin:round; stroke-linecap:round; fill:none" d="M 59 833.89L 54 833.89L 54 818.89L 59 818.89L 59 833.89z"/>
<path style="stroke:#000000; stroke-width:0.850394; stroke-linejoin:round; stroke-linecap:round; fill:none" d="M 23 787.89L 8 787.89L 8 782.89L 23 782.89L 23 787.89z"/>
<path style="stroke:#000000; stroke-width:0.850394; stroke-linejoin:round; stroke-linecap:round; fill:none" d="M 8 900.89L 8 895.89L 23 895.89L 23 900.89L 8 900.89z"/>
<path style="stroke:#000000; stroke-width:0.850394; stroke-linejoin:round; stroke-linecap:round; fill:none" d="M -23 895.89L -8 895.89L -8 900.89L -23 900.89L -23 895.89z"/>
<path style="stroke:#000000; stroke-width:0.850394; stroke-linejoin:round; stroke-linecap:round; fill:none" d="M 17.25 825.89C 17.25 825.2 16.69 824.64 16 824.64C 15.31 824.64 14.75 825.2 14.75 825.89C 14.75 826.58 15.31 827.14 16 827.14C 16.69 827.14 17.25 826.58 17.25 825.89z"/>
<path style="stroke:#000000; stroke-width:0.850394; stroke-linejoin:round; stroke-linecap:round; fill:none" d="M -14.75 825.89C -14.75 825.2 -15.31 824.64 -16 824.64C -16.69 824.64 -17.25 825.2 -17.25 825.89C -17.25 826.58 -16.69 827.14 -16 827.14C -15.31 827.14 -14.75 826.58 -14.75 825.89z"/>
<path style="stroke:#000000; stroke-width:0.850394; stroke-linejoin:round; stroke-linecap:round; fill:none" d="M 17.25 857.89C 17.25 857.2 16.69 856.64 16 856.64C 15.31 856.64 14.75 857.2 14.75 857.89C 14.75 858.58 15.31 859.14 16 859.14C 16.69 859.14 17.25 858.58 17.25 857.89z"/>
<path style="stroke:#000000; stroke-width:0.850394; stroke-linejoin:round; stroke-linecap:round; fill:none" d="M 54 864.89L 54 849.89L 59 849.89L 59 864.89L 54 864.89z"/>
<path style="stroke:#000000; stroke-width:0.850394; stroke-linejoin:round; stroke-linecap:round; fill:none" d="M 75 766.89L -75 766.89L -75 916.89L 75 916.89L 75 766.89z"/>
<path style="stroke:#000000; stroke-width:0.850394; stroke-linejoin:round; stroke-linecap:round; fill:none" d="M 89.5509 826.435C 89.5509 825.621 88.89 824.96 88.0759 824.96C 87.2617 824.96 86.6009 825.621 86.6009 826.435C 86.6009 827.249 87.2617 827.91 88.0759 827.91C 88.89 827.91 89.5509 827.249 89.5509 826.435z"/>
<path style="stroke:#000000; stroke-width:0.850394; stroke-linejoin:round; stroke-linecap:round; fill:none" d="M 89.5509 857.435C 89.5509 856.621 88.89 855.96 88.0759 855.96C 87.2617 855.96 86.6009 856.621 86.6009 857.435C 86.6009 858.249 87.2617 858.91 88.0759 858.91C 88.89 858.91 89.5509 858.249 89.5509 857.435z"/>
<path style="stroke:#000000; stroke-width:0.850394; stroke-linejoin:round; stroke-linecap:round; fill:none" d="M 120.551 857.435C 120.551 856.621 119.89 855.96 119.076 855.96C 118.262 855.96 117.601 856.621 117.601 857.435C 117.601 858.249 118.262 858.91 119.076 858.91C 119.89 858.91 120.551 858.249 120.551 857.435z"/>
<path style="stroke:#000000; stroke-width:0.850394; stroke-linejoin:round; stroke-linecap:round; fill:none" d="M 114.576 841.935C 114.576 835.863 109.648 830.935 103.576 830.935C 97.5042 830.935 92.5759 835.863 92.5759 841.935C 92.5759 848.007 97.5042 852.935 103.576 852.935C 109.648 852.935 114.576 848.007 114.576 841.935z"/>
<path style="stroke:#000000; stroke-width:0.850394; stroke-linejoin:round; stroke-linecap:round; fill:none" d="M 120.551 826.435C 120.551 825.621 119.89 824.96 119.076 824.96C 118.262 824.96 117.601 825.621 117.601 826.435C 117.601 827.249 118.262 827.91 119.076 827.91C 119.89 827.91 120.551 827.249 120.551 826.435z"/>
<path style="stroke:#000000; stroke-width:0.850394; stroke-linejoin:round; stroke-linecap:round; fill:none" d="M 95.5759 759.935L 80.5759 759.935L 80.5759 923.935L 95.5759 923.935L 95.5759 918.935L 111.576 918.935L 111.576 923.935L 126.576 923.935L 126.576 759.935L 111.576 759.935L 111.576 764.935L 95.5759 764.935L 95.5759 759.935z"/>
<path style="stroke:#000000; stroke-width:0.850394; stroke-linejoin:round; stroke-linecap:round; fill:none" d="M 30.3818 965.932C 30.3818 965.118 29.721 964.457 28.9068 964.457C 28.0927 964.457 27.4318 965.118 27.4318 965.932C 27.4318 966.746 28.0927 967.407 28.9068 967.407C 29.721 967.407 30.3818 966.746 30.3818 965.932z"/>
<path style="stroke:#000000; stroke-width:0.850394; stroke-linejoin:round; stroke-linecap:round; fill:none" d="M 61.3818 965.932C 61.3818 965.118 60.721 964.457 59.9068 964.457C 59.0927 964.457 58.4318 965.118 58.4318 965.932C 58.4318 966.746 59.0927 967.407 59.9068 967.407C 60.721 967.407 61.3818 966.746 61.3818 965.932z"/>
<path style="stroke:#000000; stroke-width:0.850394; stroke-linejoin:round; stroke-linecap:round; fill:none" d="M 61.3818 934.932C 61.3818 934.118 60.721 933.457 59.9068 933.457C 59.0927 933.457 58.4318 934.118 58.4318 934.932C 58.4318 935.746 59.0927 936.407 59.9068 936.407C 60.721 936.407 61.3818 935.746 61.3818 934.932z"/>
<path style="stroke:#000000; stroke-width:0.850394; stroke-linejoin:round; stroke-linecap:round; fill:none" d="M 55.4068 950.432C 55.4068 944.36 50.4785 939.432 44.4068 939.432C 38.3352 939.432 33.4068 944.36 33.4068 950.432C 33.4068 956.503 38.3352 961.432 44.4068 961.432C 50.4785 961.432 55.4068 956.503 55.4068 950.432z"/>
<path style="stroke:#000000; stroke-width:0.850394; stroke-linejoin:round; stroke-linecap:round; fill:none" d="M 30.3818 934.932C 30.3818 934.118 29.721 933.457 28.9068 933.457C 28.0927 933.457 27.4318 934.118 27.4318 934.932C 27.4318 935.746 28.0927 936.407 28.9068 936.407C 29.721 936.407 30.3818 935.746 30.3818 934.932z"/>
<path style="stroke:#000000; stroke-width:0.850394; stroke-linejoin:round; stroke-linecap:round; fill:none" d="M -37.5932 958.432L -37.5932 973.432L 126.407 973.432L 126.407 958.432L 121.407 958.432L 121.407 942.432L 126.407 942.432L 126.407 927.432L -37.5932 927.432L -37.5932 942.432L -32.5932 942.432L -32.5932 958.432L -37.5932 958.432z"/>
<path style="stroke:#000000; stroke-width:0.850394; stroke-linejoin:round; stroke-linecap:round; fill:none" d="M -137.67 960.385C -137.67 959.571 -138.33 958.911 -139.145 958.911C -139.959 958.911 -140.62 959.571 -140.62 960.385C -140.62 961.2 -139.959 961.86 -139.145 961.86C -138.33 961.86 -137.67 961.2 -137.67 960.385z"/>
<path style="stroke:#000000; stroke-width:0.850394; stroke-linejoin:round; stroke-linecap:round; fill:none" d="M -106.67 960.385C -106.67 959.571 -107.33 958.911 -108.145 958.911C -108.959 958.911 -109.62 959.571 -109.62 960.385C -109.62 961.2 -108.959 961.86 -108.145 961.86C -107.33 961.86 -106.67 961.2 -106.67 960.385z"/>
<path style="stroke:#000000; stroke-width:0.850394; stroke-linejoin:round; stroke-linecap:round; fill:none" d="M -106.67 929.385C -106.67 928.571 -107.33 927.911 -108.145 927.911C -108.959 927.911 -109.62 928.571 -109.62 929.385C -109.62 930.2 -108.959 930.86 -108.145 930.86C -107.33 930.86 -106.67 930.2 -106.67 929.385z"/>
<path style="stroke:#000000; stroke-width:0.850394; stroke-linejoin:round; stroke-linecap:round; fill:none" d="M -112.645 944.885C -112.645 938.814 -117.573 933.885 -123.645 933.885C -129.716 933.885 -134.645 938.814 -134.645 944.885C -134.645 950.957 -129.716 955.885 -123.645 955.885C -117.573 955.885 -112.645 950.957 -112.645 944.885z"/>
<path style="stroke:#000000; stroke-width:0.850394; stroke-linejoin:round; stroke-linecap:round; fill:none" d="M -137.67 929.385C -137.67 928.571 -138.33 927.911 -139.145 927.911C -139.959 927.911 -140.62 928.571 -140.62 929.385C -140.62 930.2 -139.959 930.86 -139.145 930.86C -138.33 930.86 -137.67 930.2 -137.67 929.385z"/>
<path style="stroke:#000000; stroke-width:0.850394; stroke-linejoin:round; stroke-linecap:round; fill:none" d="M -205.645 952.885L -205.645 967.885L -41.6446 967.885L -41.6446 952.885L -46.6446 952.885L -46.6446 936.885L -41.6446 936.885L -41.6446 921.885L -205.645 921.885L -205.645 936.885L -200.645 936.885L -200.645 952.885L -205.645 952.885z"/>
<path style="stroke:#000000; stroke-width:0.850394; stroke-linejoin:round; stroke-linecap:round; fill:none" d="M -214.85 849.335L -209.85 849.335L -209.85 864.335L -214.85 864.335L -214.85 849.335z"/>
<path style="stroke:#000000; stroke-width:0.850394; stroke-linejoin:round; stroke-linecap:round; fill:none" d="M -163.85 782.335L -163.85 787.335L -178.85 787.335L -178.85 782.335L -163.85 782.335z"/>
<path style="stroke:#000000; stroke-width:0.850394; stroke-linejoin:round; stroke-linecap:round; fill:none" d="M -170.6 857.335C -170.6 856.645 -171.16 856.085 -171.85 856.085C -172.54 856.085 -173.1 856.645 -173.1 857.335C -173.1 858.025 -172.54 858.585 -171.85 858.585C -171.16 858.585 -170.6 858.025 -170.6 857.335z"/>
<path style="stroke:#000000; stroke-width:0.850394; stroke-linejoin:round; stroke-linecap:round; fill:none" d="M -214.85 833.335L -214.85 818.335L -209.85 818.335L -209.85 833.335L -214.85 833.335z"/>
<path style="stroke:#000000; stroke-width:0.850394; stroke-linejoin:round; stroke-linecap:round; fill:none" d="M -96.8497 833.335L -101.85 833.335L -101.85 818.335L -96.8497 818.335L -96.8497 833.335z"/>
<path style="stroke:#000000; stroke-width:0.850394; stroke-linejoin:round; stroke-linecap:round; fill:none" d="M -132.85 787.335L -147.85 787.335L -147.85 782.335L -132.85 782.335L -132.85 787.335z"/>
<path style="stroke:#000000; stroke-width:0.850394; stroke-linejoin:round; stroke-linecap:round; fill:none" d="M -147.85 900.335L -147.85 895.335L -132.85 895.335L -132.85 900.335L -147.85 900.335z"/>
<path style="stroke:#000000; stroke-width:0.850394; stroke-linejoin:round; stroke-linecap:round; fill:none" d="M -178.85 895.335L -163.85 895.335L -163.85 900.335L -178.85 900.335L -178.85 895.335z"/>
<path style="stroke:#000000; stroke-width:0.850394; stroke-linejoin:round; stroke-linecap:round; fill:none" d="M -138.6 825.335C -138.6 824.645 -139.16 824.085 -139.85 824.085C -140.54 824.085 -141.1 824.645 -141.1 825.335C -141.1 826.025 -140.54 826.585 -139.85 826.585C -139.16 826.585 -138.6 826.025 -138.6 825.335z"/>
<path style="stroke:#000000; stroke-width:0.850394; stroke-linejoin:round; stroke-linecap:round; fill:none" d="M -170.6 825.335C -170.6 824.645 -171.16 824.085 -171.85 824.085C -172.54 824.085 -173.1 824.645 -173.1 825.335C -173.1 826.025 -172.54 826.585 -171.85 826.585C -171.16 826.585 -170.6 826.025 -170.6 825.335z"/>
<path style="stroke:#000000; stroke-width:0.850394; stroke-linejoin:round; stroke-linecap:round; fill:none" d="M -138.6 857.335C -138.6 856.645 -139.16 856.085 -139.85 856.085C -140.54 856.085 -141.1 856.645 -141.1 857.335C -141.1 858.025 -140.54 858.585 -139.85 858.585C -139.16 858.585 -138.6 858.025 -138.6 857.335z"/>
<path style="stroke:#000000; stroke-width:0.850394; stroke-linejoin:round; stroke-linecap:round; fill:none" d="M -101.85 864.335L -101.85 849.335L -96.8497 849.335L -96.8497 864.335L -101.85 864.335z"/>
<path style="stroke:#000000; stroke-width:0.850394; stroke-linejoin:round; stroke-linecap:round; fill:none" d="M -80.8497 766.335L -230.85 766.335L -230.85 916.335L -80.8497 916.335L -80.8497 766.335z"/>
<path style="stroke:#000000; stroke-width:0.850394; stroke-linejoin:round; stroke-linecap:round; fill:none" d="M -270.57 870.974C -270.57 870.16 -271.231 869.499 -272.045 869.499C -272.859 869.499 -273.52 870.16 -273.52 870.974C -273.52 871.788 -272.859 872.449 -272.045 872.449C -271.231 872.449 -270.57 871.788 -270.57 870.974z"/>
<path style="stroke:#000000; stroke-width:0.850394; stroke-linejoin:round; stroke-linecap:round; fill:none" d="M -270.57 901.974C -270.57 901.16 -271.231 900.499 -272.045 900.499C -272.859 900.499 -273.52 901.16 -273.52 901.974C -273.52 902.788 -272.859 903.449 -272.045 903.449C -271.231 903.449 -270.57 902.788 -270.57 901.974z"/>
<path style="stroke:#000000; stroke-width:0.850394; stroke-linejoin:round; stroke-linecap:round; fill:none" d="M -239.57 901.974C -239.57 901.16 -240.231 900.499 -241.045 900.499C -241.859 900.499 -242.52 901.16 -242.52 901.974C -242.52 902.788 -241.859 903.449 -241.045 903.449C -240.231 903.449 -239.57 902.788 -239.57 901.974z"/>
<path style="stroke:#000000; stroke-width:0.850394; stroke-linejoin:round; stroke-linecap:round; fill:none" d="M -245.545 886.474C -245.545 880.402 -250.473 875.474 -256.545 875.474C -262.617 875.474 -267.545 880.402 -267.545 886.474C -267.545 892.546 -262.617 897.474 -256.545 897.474C -250.473 897.474 -245.545 892.546 -245.545 886.474z"/>
<path style="stroke:#000000; stroke-width:0.850394; stroke-linejoin:round; stroke-linecap:round; fill:none" d="M -239.57 870.974C -239.57 870.16 -240.231 869.499 -241.045 869.499C -241.859 869.499 -242.52 870.16 -242.52 870.974C -242.52 871.788 -241.859 872.449 -241.045 872.449C -240.231 872.449 -239.57 871.788 -239.57 870.974z"/>
<path style="stroke:#000000; stroke-width:0.850394; stroke-linejoin:round; stroke-linecap:round; fill:none" d="M -264.545 804.474L -279.545 804.474L -279.545 968.474L -264.545 968.474L -264.545 963.474L -248.545 963.474L -248.545 968.474L -233.545 968.474L -233.545 804.474L -248.545 804.474L -248.545 809.474L -264.545 809.474L -264.545 804.474z"/>
</g>
</svg>