<?xml version="1.0" encoding="UTF-8" standalone="no"?>
<!-- Generator: Fusion 360, Shaper Origin Export Add-In, Version 1.8.0  -->

<svg
   shaper:fusionaddin="version:1.8.0"
   width="60cm"
   height="30cm"
   version="1.1"
   x="0cm"
   y="0cm"
   viewBox="0 0 60.000001 30"
   enable-background="new 0 0 34.3410956 15"
   xml:space="preserve"
   id="svg20"
   sodipodi:docname="scetch5.svg"
   inkscape:version="1.4 (e7c3feb1, 2024-10-09)"
   xmlns:inkscape="http://www.inkscape.org/namespaces/inkscape"
   xmlns:sodipodi="http://sodipodi.sourceforge.net/DTD/sodipodi-0.dtd"
   xmlns="http://www.w3.org/2000/svg"
   xmlns:svg="http://www.w3.org/2000/svg"
   xmlns:shaper="http://www.shapertools.com/namespaces/shaper"><defs
     id="defs20" /><sodipodi:namedview
     id="namedview20"
     pagecolor="#ffffff"
     bordercolor="#000000"
     borderopacity="0.25"
     inkscape:showpageshadow="2"
     inkscape:pageopacity="0.0"
     inkscape:pagecheckerboard="0"
     inkscape:deskcolor="#d1d1d1"
     inkscape:document-units="cm"
     inkscape:zoom="0.33151166"
     inkscape:cx="990.91537"
     inkscape:cy="535.42611"
     inkscape:window-width="1440"
     inkscape:window-height="778"
     inkscape:window-x="0"
     inkscape:window-y="25"
     inkscape:window-maximized="1"
     inkscape:current-layer="svg20" /><path
     d="m 20.769421,7.7375452 h -0.597 v -1.5 h 0.597 z"
     stroke="#646464"
     stroke-width="0.001cm"
     stroke-linecap="round"
     stroke-linejoin="round"
     fill="none"
     id="path1"
     style="stroke-width:0.038;stroke-dasharray:none;stroke:#ff0000;stroke-opacity:1" /><path
     d="m 17.169421,3.2345452 h -1.5 v -0.597 h 1.5 z"
     stroke="#646464"
     stroke-width="0.001cm"
     stroke-linecap="round"
     stroke-linejoin="round"
     fill="none"
     id="path2"
     style="stroke-width:0.038;stroke-dasharray:none;stroke:#ff0000;stroke-opacity:1" /><path
     d="m 13.769421,8.5375452 a 1.1,1.1 0 1 0 2.2,0 1.1,1.1 0 1 0 -2.2,0 z"
     stroke="#646464"
     stroke-width="0.001cm"
     stroke-linecap="round"
     stroke-linejoin="round"
     fill="none"
     id="path3"
     style="stroke-width:0.038;stroke-dasharray:none;stroke:#ff0000;stroke-opacity:1" /><path
     d="m 13.194421,6.9875452 a 0.125,0.125 0 1 0 0.25,0 0.125,0.125 0 1 0 -0.25,0 z"
     stroke="#646464"
     stroke-width="0.001cm"
     stroke-linecap="round"
     stroke-linejoin="round"
     fill="none"
     id="path4"
     style="stroke-width:0.038;stroke-dasharray:none;stroke:#ff0000;stroke-opacity:1" /><path
     d="m 13.194421,10.087545 a 0.125,0.125 0 1 0 0.25,0 0.125,0.125 0 1 0 -0.25,0 z"
     stroke="#646464"
     stroke-width="0.001cm"
     stroke-linecap="round"
     stroke-linejoin="round"
     fill="none"
     id="path5"
     style="stroke-width:0.038;stroke-dasharray:none;stroke:#ff0000;stroke-opacity:1" /><path
     d="m 16.294421,6.9875452 a 0.125,0.125 0 1 0 0.25,0 0.125,0.125 0 1 0 -0.25,0 z"
     stroke="#646464"
     stroke-width="0.001cm"
     stroke-linecap="round"
     stroke-linejoin="round"
     fill="none"
     id="path6"
     style="stroke-width:0.038;stroke-dasharray:none;stroke:#ff0000;stroke-opacity:1" /><path
     d="m 14.069421,2.6375452 v 0.597 h -1.5 v -0.597 z"
     stroke="#646464"
     stroke-width="0.001cm"
     stroke-linecap="round"
     stroke-linejoin="round"
     fill="none"
     id="path7"
     style="stroke-width:0.038;stroke-dasharray:none;stroke:#ff0000;stroke-opacity:1" /><path
     d="m 15.669421,14.437545 v -0.597 h 1.5 v 0.597 z"
     stroke="#646464"
     stroke-width="0.001cm"
     stroke-linecap="round"
     stroke-linejoin="round"
     fill="none"
     id="path8"
     style="stroke-width:0.038;stroke-dasharray:none;stroke:#ff0000;stroke-opacity:1" /><path
     d="M 20.172421,10.837545 V 9.3375452 h 0.597 v 1.4999998 z"
     stroke="#646464"
     stroke-width="0.001cm"
     stroke-linecap="round"
     stroke-linejoin="round"
     fill="none"
     id="path9"
     style="stroke-width:0.038;stroke-dasharray:none;stroke:#ff0000;stroke-opacity:1" /><path
     d="m 16.294421,10.087545 a 0.125,0.125 0 1 0 0.25,0 0.125,0.125 0 1 0 -0.25,0 z"
     stroke="#646464"
     stroke-width="0.001cm"
     stroke-linecap="round"
     stroke-linejoin="round"
     fill="none"
     id="path10"
     style="stroke-width:0.038;stroke-dasharray:none;stroke:#ff0000;stroke-opacity:1" /><path
     d="M 8.9694209,9.3375452 H 9.566421 V 10.837545 H 8.9694209 Z"
     stroke="#646464"
     stroke-width="0.001cm"
     stroke-linecap="round"
     stroke-linejoin="round"
     fill="none"
     id="path11"
     style="stroke-width:0.038;stroke-dasharray:none;stroke:#ff0000;stroke-opacity:1" /><path
     d="m 8.9694209,7.7375452 v -1.5 H 9.566421 v 1.5 z"
     stroke="#646464"
     stroke-width="0.001cm"
     stroke-linecap="round"
     stroke-linejoin="round"
     fill="none"
     id="path12"
     style="stroke-width:0.038;stroke-dasharray:none;stroke:#ff0000;stroke-opacity:1" /><path
     d="m 12.569421,13.840545 h 1.5 v 0.597 h -1.5 z"
     stroke="#646464"
     stroke-width="0.001cm"
     stroke-linecap="round"
     stroke-linejoin="round"
     fill="none"
     id="path13"
     style="stroke-width:0.038;stroke-dasharray:none;stroke:#ff0000;stroke-opacity:1" /><path
     d="M 22.369421,1.0375452 H 7.3694209 V 16.037545 H 22.369421 Z"
     stroke="#646464"
     stroke-width="0.001cm"
     stroke-linecap="round"
     stroke-linejoin="round"
     fill="none"
     id="path14"
     style="stroke-width:0.038;stroke-dasharray:none;stroke:#ff0000;stroke-opacity:1" /><path
     d="m 32.347829,7.5558283 a 0.1475,0.1475 0 1 0 0.295,0 0.1475,0.1475 0 1 0 -0.295,0 z"
     stroke="#646464"
     stroke-width="0.001cm"
     stroke-linecap="round"
     stroke-linejoin="round"
     fill="none"
     id="path15"
     style="stroke-width:0.038;stroke-dasharray:none;stroke:#ff0000;stroke-opacity:1" /><path
     d="m 32.970329,9.1058283 a 1.1,1.1 0 1 0 2.2,0 1.1,1.1 0 1 0 -2.2,0 z"
     stroke="#646464"
     stroke-width="0.001cm"
     stroke-linecap="round"
     stroke-linejoin="round"
     fill="none"
     id="path16"
     style="stroke-width:0.038;stroke-dasharray:none;stroke:#ff0000;stroke-opacity:1" /><path
     d="m 35.497829,10.655828 a 0.1475,0.1475 0 1 0 0.295,0 0.1475,0.1475 0 1 0 -0.295,0 z"
     stroke="#646464"
     stroke-width="0.001cm"
     stroke-linecap="round"
     stroke-linejoin="round"
     fill="none"
     id="path17"
     style="stroke-width:0.038;stroke-dasharray:none;stroke:#ff0000;stroke-opacity:1" /><path
     d="m 32.372829,10.680828 a 0.1475,0.1475 0 1 0 0.295,0 0.1475,0.1475 0 1 0 -0.295,0 z"
     stroke="#646464"
     stroke-width="0.001cm"
     stroke-linecap="round"
     stroke-linejoin="round"
     fill="none"
     id="path18"
     style="stroke-width:0.038;stroke-dasharray:none;stroke:#ff0000;stroke-opacity:1" /><path
     d="m 35.472829,7.5308283 a 0.1475,0.1475 0 1 0 0.295,0 0.1475,0.1475 0 1 0 -0.295,0 z"
     stroke="#646464"
     stroke-width="0.001cm"
     stroke-linecap="round"
     stroke-linejoin="round"
     fill="none"
     id="path19"
     style="stroke-width:0.038;stroke-dasharray:none;stroke:#ff0000;stroke-opacity:1" /><path
     d="m 25.220329,9.905828 v 1.5 h 17.7 v -1.5 h -0.595 V 8.3058283 h 0.595 v -1.5 h -17.7 v 1.5 h 0.595 V 9.905828 Z"
     stroke="#646464"
     stroke-width="0.001cm"
     stroke-linecap="round"
     stroke-linejoin="round"
     fill="none"
     id="path20"
     style="stroke-width:0.038;stroke-dasharray:none;stroke:#ff0000;stroke-opacity:1" /></svg>
