<?xml version="1.0" encoding="UTF-8" standalone="no"?>
<!-- Generator: Fusion 360, Shaper Origin Export Add-In, Version 1.8.0  -->

<svg
   shaper:fusionaddin="version:1.8.0"
   width="60cm"
   height="30cm"
   version="1.1"
   x="0cm"
   y="0cm"
   viewBox="0 0 60.000001 29.999999"
   enable-background="new 0 0 43.7451714 24.6539051"
   xml:space="preserve"
   id="svg50"
   sodipodi:docname="sketch4.svg"
   inkscape:version="1.4 (e7c3feb1, 2024-10-09)"
   xmlns:inkscape="http://www.inkscape.org/namespaces/inkscape"
   xmlns:sodipodi="http://sodipodi.sourceforge.net/DTD/sodipodi-0.dtd"
   xmlns="http://www.w3.org/2000/svg"
   xmlns:svg="http://www.w3.org/2000/svg"
   xmlns:shaper="http://www.shapertools.com/namespaces/shaper"><defs
     id="defs50" /><sodipodi:namedview
     id="namedview50"
     pagecolor="#ffffff"
     bordercolor="#000000"
     borderopacity="0.25"
     inkscape:showpageshadow="2"
     inkscape:pageopacity="0.0"
     inkscape:pagecheckerboard="0"
     inkscape:deskcolor="#d1d1d1"
     inkscape:document-units="cm"
     inkscape:zoom="0.356121"
     inkscape:cx="798.88578"
     inkscape:cy="523.69841"
     inkscape:window-width="1440"
     inkscape:window-height="778"
     inkscape:window-x="0"
     inkscape:window-y="25"
     inkscape:window-maximized="1"
     inkscape:current-layer="svg50" /><path
     d="m 17.819621,8.9507574 h 0.597 v 1.4999996 h -0.597 z"
     stroke="#646464"
     stroke-width="0.001cm"
     stroke-linecap="round"
     stroke-linejoin="round"
     fill="none"
     id="path1"
     style="stroke:#ff0000;stroke-opacity:1" /><path
     d="m 22.919621,2.2507568 v 0.597 h -1.5 v -0.597 z"
     stroke="#646464"
     stroke-width="0.001cm"
     stroke-linecap="round"
     stroke-linejoin="round"
     fill="none"
     id="path2"
     style="stroke:#ff0000;stroke-opacity:1" /><path
     d="m 22.044621,9.7007574 a 0.125,0.125 0 1 0 0.25,0 0.125,0.125 0 1 0 -0.25,0 z"
     stroke="#646464"
     stroke-width="0.001cm"
     stroke-linecap="round"
     stroke-linejoin="round"
     fill="none"
     id="path3"
     style="stroke:#ff0000;stroke-opacity:1" /><path
     d="M 17.819621,7.3507574 V 5.8507568 h 0.597 v 1.5000006 z"
     stroke="#646464"
     stroke-width="0.001cm"
     stroke-linecap="round"
     stroke-linejoin="round"
     fill="none"
     id="path4"
     style="stroke:#ff0000;stroke-opacity:1" /><path
     d="m 29.619621,7.3507574 h -0.597 V 5.8507568 h 0.597 z"
     stroke="#646464"
     stroke-width="0.001cm"
     stroke-linecap="round"
     stroke-linejoin="round"
     fill="none"
     id="path5"
     style="stroke:#ff0000;stroke-opacity:1" /><path
     d="m 26.019621,2.8477568 h -1.5 v -0.597 h 1.5 z"
     stroke="#646464"
     stroke-width="0.001cm"
     stroke-linecap="round"
     stroke-linejoin="round"
     fill="none"
     id="path6"
     style="stroke:#ff0000;stroke-opacity:1" /><path
     d="m 24.519621,14.050757 v -0.597 h 1.5 v 0.597 z"
     stroke="#646464"
     stroke-width="0.001cm"
     stroke-linecap="round"
     stroke-linejoin="round"
     fill="none"
     id="path7"
     style="stroke:#ff0000;stroke-opacity:1" /><path
     d="m 21.419621,13.453757 h 1.5 v 0.597 h -1.5 z"
     stroke="#646464"
     stroke-width="0.001cm"
     stroke-linecap="round"
     stroke-linejoin="round"
     fill="none"
     id="path8"
     style="stroke:#ff0000;stroke-opacity:1" /><path
     d="m 25.144621,6.6007564 a 0.125,0.125 0 1 0 0.25,0 0.125,0.125 0 1 0 -0.25,0 z"
     stroke="#646464"
     stroke-width="0.001cm"
     stroke-linecap="round"
     stroke-linejoin="round"
     fill="none"
     id="path9"
     style="stroke:#ff0000;stroke-opacity:1" /><path
     d="m 22.044621,6.6007564 a 0.125,0.125 0 1 0 0.25,0 0.125,0.125 0 1 0 -0.25,0 z"
     stroke="#646464"
     stroke-width="0.001cm"
     stroke-linecap="round"
     stroke-linejoin="round"
     fill="none"
     id="path10"
     style="stroke:#ff0000;stroke-opacity:1" /><path
     d="m 25.144621,9.7007574 a 0.125,0.125 0 1 0 0.25,0 0.125,0.125 0 1 0 -0.25,0 z"
     stroke="#646464"
     stroke-width="0.001cm"
     stroke-linecap="round"
     stroke-linejoin="round"
     fill="none"
     id="path11"
     style="stroke:#ff0000;stroke-opacity:1" /><path
     d="M 29.022621,10.450757 V 8.9507574 h 0.597 v 1.4999996 z"
     stroke="#646464"
     stroke-width="0.001cm"
     stroke-linecap="round"
     stroke-linejoin="round"
     fill="none"
     id="path12"
     style="stroke:#ff0000;stroke-opacity:1" /><path
     d="m 31.219621,0.65075685 h -15 V 15.650757 h 15 z"
     stroke="#646464"
     stroke-width="0.001cm"
     stroke-linecap="round"
     stroke-linejoin="round"
     fill="none"
     id="path13"
     style="stroke:#ff0000;stroke-opacity:1" /><path
     d="m 25.989168,20.082376 a 0.1475,0.1475 0 1 0 0,-0.295 0.1475,0.1475 0 1 0 0,0.295 z"
     stroke="#646464"
     stroke-width="0.001cm"
     stroke-linecap="round"
     stroke-linejoin="round"
     fill="none"
     id="path14"
     style="stroke:#ff0000;stroke-opacity:1" /><path
     d="m 29.114168,20.057376 a 0.14750005,0.14750005 0 1 0 0,-0.295 0.14750005,0.14750005 0 1 0 0,0.295 z"
     stroke="#646464"
     stroke-width="0.001cm"
     stroke-linecap="round"
     stroke-linejoin="round"
     fill="none"
     id="path15"
     style="stroke:#ff0000;stroke-opacity:1" /><path
     d="m 29.089168,16.932376 a 0.1475,0.1475 0 1 0 0,-0.295 0.1475,0.1475 0 1 0 0,0.295 z"
     stroke="#646464"
     stroke-width="0.001cm"
     stroke-linecap="round"
     stroke-linejoin="round"
     fill="none"
     id="path16"
     style="stroke:#ff0000;stroke-opacity:1" /><path
     d="m 27.539168,19.459876 a 1.1,1.1 0 1 0 0,-2.2 1.1,1.1 0 1 0 0,2.2 z"
     stroke="#646464"
     stroke-width="0.001cm"
     stroke-linecap="round"
     stroke-linejoin="round"
     fill="none"
     id="path17"
     style="stroke:#ff0000;stroke-opacity:1" /><path
     d="m 25.964168,16.957376 a 0.1475,0.1475 0 1 0 0,-0.295 0.1475,0.1475 0 1 0 0,0.295 z"
     stroke="#646464"
     stroke-width="0.001cm"
     stroke-linecap="round"
     stroke-linejoin="round"
     fill="none"
     id="path18"
     style="stroke:#ff0000;stroke-opacity:1" /><path
     d="m 18.689168,19.159876 v 1.5 h 17.7 v -1.5 h -0.595 v -1.6 h 0.595 v -1.5 h -17.7 v 1.5 h 0.595 v 1.6 z"
     stroke="#646464"
     stroke-width="0.001cm"
     stroke-linecap="round"
     stroke-linejoin="round"
     fill="none"
     id="path19"
     style="stroke:#ff0000;stroke-opacity:1" /><path
     d="m 7.8627658,24.963415 a 0.1475,0.1475 0 1 0 0.295,0 0.1475,0.1475 0 1 0 -0.295,0 z"
     stroke="#646464"
     stroke-width="0.001cm"
     stroke-linecap="round"
     stroke-linejoin="round"
     fill="none"
     id="path20"
     style="stroke:#ff0000;stroke-opacity:1" /><path
     d="m 10.987766,24.938415 a 0.1475,0.1475 0 1 0 0.295,0 0.1475,0.1475 0 1 0 -0.295,0 z"
     stroke="#646464"
     stroke-width="0.001cm"
     stroke-linecap="round"
     stroke-linejoin="round"
     fill="none"
     id="path21"
     style="stroke:#ff0000;stroke-opacity:1" /><path
     d="m 10.962766,21.813414 a 0.1475,0.1475 0 1 0 0.295,0 0.1475,0.1475 0 1 0 -0.295,0 z"
     stroke="#646464"
     stroke-width="0.001cm"
     stroke-linecap="round"
     stroke-linejoin="round"
     fill="none"
     id="path22"
     style="stroke:#ff0000;stroke-opacity:1" /><path
     d="m 8.4602658,23.388415 a 1.1,1.1 0 1 0 2.2000002,0 1.1,1.1 0 1 0 -2.2000002,0 z"
     stroke="#646464"
     stroke-width="0.001cm"
     stroke-linecap="round"
     stroke-linejoin="round"
     fill="none"
     id="path23"
     style="stroke:#ff0000;stroke-opacity:1" /><path
     d="m 7.8377658,21.838414 a 0.1475,0.1475 0 1 0 0.295,0 0.1475,0.1475 0 1 0 -0.295,0 z"
     stroke="#646464"
     stroke-width="0.001cm"
     stroke-linecap="round"
     stroke-linejoin="round"
     fill="none"
     id="path24"
     style="stroke:#ff0000;stroke-opacity:1" /><path
     d="m 0.71026578,24.188415 v 1.5 H 18.410266 v -1.5 h -0.595 v -1.6 h 0.595 V 21.088414 H 0.71026578 v 1.500001 H 1.3052658 v 1.6 z"
     stroke="#646464"
     stroke-width="0.001cm"
     stroke-linecap="round"
     stroke-linejoin="round"
     fill="none"
     id="path25"
     style="stroke:#ff0000;stroke-opacity:1" /><path
     d="m 7.8745602,19.951034 a 0.1475,0.1475 0 1 0 0.295,0 0.1475,0.1475 0 1 0 -0.295,0 z"
     stroke="#646464"
     stroke-width="0.001cm"
     stroke-linecap="round"
     stroke-linejoin="round"
     fill="none"
     id="path26"
     style="stroke:#ff0000;stroke-opacity:1" /><path
     d="m 10.99956,19.926034 a 0.1475,0.1475 0 1 0 0.295,0 0.1475,0.1475 0 1 0 -0.295,0 z"
     stroke="#646464"
     stroke-width="0.001cm"
     stroke-linecap="round"
     stroke-linejoin="round"
     fill="none"
     id="path27"
     style="stroke:#ff0000;stroke-opacity:1" /><path
     d="m 10.97456,16.801034 a 0.1475,0.1475 0 1 0 0.295,0 0.1475,0.1475 0 1 0 -0.295,0 z"
     stroke="#646464"
     stroke-width="0.001cm"
     stroke-linecap="round"
     stroke-linejoin="round"
     fill="none"
     id="path28"
     style="stroke:#ff0000;stroke-opacity:1" /><path
     d="m 8.4720602,18.376034 a 1.1,1.1 0 1 0 2.1999998,0 1.1,1.1 0 1 0 -2.1999998,0 z"
     stroke="#646464"
     stroke-width="0.001cm"
     stroke-linecap="round"
     stroke-linejoin="round"
     fill="none"
     id="path29"
     style="stroke:#ff0000;stroke-opacity:1" /><path
     d="m 7.8495602,16.826034 a 0.1475,0.1475 0 1 0 0.295,0 0.1475,0.1475 0 1 0 -0.295,0 z"
     stroke="#646464"
     stroke-width="0.001cm"
     stroke-linecap="round"
     stroke-linejoin="round"
     fill="none"
     id="path30"
     style="stroke:#ff0000;stroke-opacity:1" /><path
     d="m 0.72206048,19.176034 v 1.5 H 18.42206 v -1.5 h -0.595 v -1.6 h 0.595 v -1.5 H 0.72206048 v 1.5 H 1.3170602 v 1.6 z"
     stroke="#646464"
     stroke-width="0.001cm"
     stroke-linecap="round"
     stroke-linejoin="round"
     fill="none"
     id="path31"
     style="stroke:#ff0000;stroke-opacity:1" /><path
     d="M 2.2346553,8.8952944 H 2.831655 V 10.395294 H 2.2346553 Z"
     stroke="#646464"
     stroke-width="0.001cm"
     stroke-linecap="round"
     stroke-linejoin="round"
     fill="none"
     id="path32"
     style="stroke:#ff0000;stroke-opacity:1" /><path
     d="m 7.334655,2.1952943 v 0.597 h -1.5 v -0.597 z"
     stroke="#646464"
     stroke-width="0.001cm"
     stroke-linecap="round"
     stroke-linejoin="round"
     fill="none"
     id="path33"
     style="stroke:#ff0000;stroke-opacity:1" /><path
     d="m 6.459655,9.6452944 a 0.125,0.125 0 1 0 0.25,0 0.125,0.125 0 1 0 -0.25,0 z"
     stroke="#646464"
     stroke-width="0.001cm"
     stroke-linecap="round"
     stroke-linejoin="round"
     fill="none"
     id="path34"
     style="stroke:#ff0000;stroke-opacity:1" /><path
     d="M 2.2346553,7.2952954 V 5.7952943 H 2.831655 v 1.5000011 z"
     stroke="#646464"
     stroke-width="0.001cm"
     stroke-linecap="round"
     stroke-linejoin="round"
     fill="none"
     id="path35"
     style="stroke:#ff0000;stroke-opacity:1" /><path
     d="m 14.034655,7.2952954 h -0.597 V 5.7952943 h 0.597 z"
     stroke="#646464"
     stroke-width="0.001cm"
     stroke-linecap="round"
     stroke-linejoin="round"
     fill="none"
     id="path36"
     style="stroke:#ff0000;stroke-opacity:1" /><path
     d="m 10.434655,2.7922943 h -1.5 v -0.597 h 1.5 z"
     stroke="#646464"
     stroke-width="0.001cm"
     stroke-linecap="round"
     stroke-linejoin="round"
     fill="none"
     id="path37"
     style="stroke:#ff0000;stroke-opacity:1" /><path
     d="m 8.934655,13.995294 v -0.597 h 1.5 v 0.597 z"
     stroke="#646464"
     stroke-width="0.001cm"
     stroke-linecap="round"
     stroke-linejoin="round"
     fill="none"
     id="path38"
     style="stroke:#ff0000;stroke-opacity:1" /><path
     d="m 5.834655,13.398294 h 1.5 v 0.597 h -1.5 z"
     stroke="#646464"
     stroke-width="0.001cm"
     stroke-linecap="round"
     stroke-linejoin="round"
     fill="none"
     id="path39"
     style="stroke:#ff0000;stroke-opacity:1" /><path
     d="m 9.559655,6.5452944 a 0.125,0.125 0 1 0 0.25,0 0.125,0.125 0 1 0 -0.25,0 z"
     stroke="#646464"
     stroke-width="0.001cm"
     stroke-linecap="round"
     stroke-linejoin="round"
     fill="none"
     id="path40"
     style="stroke:#ff0000;stroke-opacity:1" /><path
     d="m 6.459655,6.5452944 a 0.125,0.125 0 1 0 0.25,0 0.125,0.125 0 1 0 -0.25,0 z"
     stroke="#646464"
     stroke-width="0.001cm"
     stroke-linecap="round"
     stroke-linejoin="round"
     fill="none"
     id="path41"
     style="stroke:#ff0000;stroke-opacity:1" /><path
     d="m 9.559655,9.6452944 a 0.125,0.125 0 1 0 0.25,0 0.125,0.125 0 1 0 -0.25,0 z"
     stroke="#646464"
     stroke-width="0.001cm"
     stroke-linecap="round"
     stroke-linejoin="round"
     fill="none"
     id="path42"
     style="stroke:#ff0000;stroke-opacity:1" /><path
     d="M 13.437655,10.395294 V 8.8952944 h 0.597 v 1.4999996 z"
     stroke="#646464"
     stroke-width="0.001cm"
     stroke-linecap="round"
     stroke-linejoin="round"
     fill="none"
     id="path43"
     style="stroke:#ff0000;stroke-opacity:1" /><path
     d="M 15.634655,0.59529435 H 0.63465529 V 15.595294 H 15.634655 Z"
     stroke="#646464"
     stroke-width="0.001cm"
     stroke-linecap="round"
     stroke-linejoin="round"
     fill="none"
     id="path44"
     style="stroke:#ff0000;stroke-opacity:1" /><path
     d="m 26.010609,25.178885 a 0.1475,0.1475 0 1 0 0,-0.295 0.1475,0.1475 0 1 0 0,0.295 z"
     stroke="#646464"
     stroke-width="0.001cm"
     stroke-linecap="round"
     stroke-linejoin="round"
     fill="none"
     id="path45"
     style="stroke:#ff0000;stroke-opacity:1" /><path
     d="m 29.135609,25.153885 a 0.1475,0.1475 0 1 0 0,-0.295 0.1475,0.1475 0 1 0 0,0.295 z"
     stroke="#646464"
     stroke-width="0.001cm"
     stroke-linecap="round"
     stroke-linejoin="round"
     fill="none"
     id="path46"
     style="stroke:#ff0000;stroke-opacity:1" /><path
     d="m 29.110609,22.028885 a 0.1475,0.1475 0 1 0 0,-0.295 0.1475,0.1475 0 1 0 0,0.295 z"
     stroke="#646464"
     stroke-width="0.001cm"
     stroke-linecap="round"
     stroke-linejoin="round"
     fill="none"
     id="path47"
     style="stroke:#ff0000;stroke-opacity:1" /><path
     d="m 27.560609,24.556385 a 1.1,1.1 0 1 0 0,-2.2 1.1,1.1 0 1 0 0,2.2 z"
     stroke="#646464"
     stroke-width="0.001cm"
     stroke-linecap="round"
     stroke-linejoin="round"
     fill="none"
     id="path48"
     style="stroke:#ff0000;stroke-opacity:1" /><path
     d="m 25.985609,22.053885 a 0.1475,0.1475 0 1 0 0,-0.295 0.1475,0.1475 0 1 0 0,0.295 z"
     stroke="#646464"
     stroke-width="0.001cm"
     stroke-linecap="round"
     stroke-linejoin="round"
     fill="none"
     id="path49"
     style="stroke:#ff0000;stroke-opacity:1" /><path
     d="m 18.710609,24.256385 v 1.5 h 17.7 v -1.5 h -0.595 v -1.6 h 0.595 v -1.5 h -17.7 v 1.5 h 0.595 v 1.6 z"
     stroke="#646464"
     stroke-width="0.001cm"
     stroke-linecap="round"
     stroke-linejoin="round"
     fill="none"
     id="path50"
     style="stroke:#ff0000;stroke-opacity:1" /></svg>
