<?xml version="1.0" encoding="UTF-8" standalone="no"?>
<!-- Generator: Fusion 360, Shaper Origin Export Add-In, Version 1.8.0  -->

<svg
   shaper:fusionaddin="version:1.8.0"
   width="52.612cm"
   height="29.35cm"
   version="1.1"
   x="0cm"
   y="0cm"
   viewBox="0 0 52.611999 29.349999"
   enable-background="new 0 0 40.6120754 21.3496791"
   xml:space="preserve"
   id="svg50"
   sodipodi:docname="Sketch3.svg"
   inkscape:version="1.4 (e7c3feb1, 2024-10-09)"
   xmlns:inkscape="http://www.inkscape.org/namespaces/inkscape"
   xmlns:sodipodi="http://sodipodi.sourceforge.net/DTD/sodipodi-0.dtd"
   xmlns="http://www.w3.org/2000/svg"
   xmlns:svg="http://www.w3.org/2000/svg"
   xmlns:shaper="http://www.shapertools.com/namespaces/shaper"><defs
     id="defs50" /><sodipodi:namedview
     id="namedview50"
     pagecolor="#ffffff"
     bordercolor="#000000"
     borderopacity="0.25"
     inkscape:showpageshadow="2"
     inkscape:pageopacity="0.0"
     inkscape:pagecheckerboard="0"
     inkscape:deskcolor="#d1d1d1"
     inkscape:document-units="cm"
     inkscape:zoom="0.34727201"
     inkscape:cx="971.86065"
     inkscape:cy="473.69208"
     inkscape:window-width="1440"
     inkscape:window-height="778"
     inkscape:window-x="0"
     inkscape:window-y="25"
     inkscape:window-maximized="1"
     inkscape:current-layer="svg50" /><path
     d="m 27.311534,12.195422 h 0.5 v 1.5 h -0.5 z"
     stroke="#646464"
     stroke-width="0.001cm"
     stroke-linecap="round"
     stroke-linejoin="round"
     fill="none"
     id="path1"
     style="stroke:#ff0000;stroke-opacity:1" /><path
     d="m 32.411534,5.4954218 v 0.5 h -1.5 v -0.5 z"
     stroke="#646464"
     stroke-width="0.001cm"
     stroke-linecap="round"
     stroke-linejoin="round"
     fill="none"
     id="path2"
     style="stroke:#ff0000;stroke-opacity:1" /><path
     d="m 31.486534,12.995422 a 0.125,0.125 0 1 0 0.25,0 0.125,0.125 0 1 0 -0.25,0 z"
     stroke="#646464"
     stroke-width="0.001cm"
     stroke-linecap="round"
     stroke-linejoin="round"
     fill="none"
     id="path3"
     style="stroke:#ff0000;stroke-opacity:1" /><path
     d="M 27.311534,10.595422 V 9.0954218 h 0.5 v 1.5000002 z"
     stroke="#646464"
     stroke-width="0.001cm"
     stroke-linecap="round"
     stroke-linejoin="round"
     fill="none"
     id="path4"
     style="stroke:#ff0000;stroke-opacity:1" /><path
     d="m 39.111534,10.595422 h -0.5 V 9.0954218 h 0.5 z"
     stroke="#646464"
     stroke-width="0.001cm"
     stroke-linecap="round"
     stroke-linejoin="round"
     fill="none"
     id="path5"
     style="stroke:#ff0000;stroke-opacity:1" /><path
     d="m 35.511534,5.9954218 h -1.5 v -0.5 h 1.5 z"
     stroke="#646464"
     stroke-width="0.001cm"
     stroke-linecap="round"
     stroke-linejoin="round"
     fill="none"
     id="path6"
     style="stroke:#ff0000;stroke-opacity:1" /><path
     d="m 34.011534,17.295422 v -0.5 h 1.5 v 0.5 z"
     stroke="#646464"
     stroke-width="0.001cm"
     stroke-linecap="round"
     stroke-linejoin="round"
     fill="none"
     id="path7"
     style="stroke:#ff0000;stroke-opacity:1" /><path
     d="m 30.911534,16.795422 h 1.5 v 0.5 h -1.5 z"
     stroke="#646464"
     stroke-width="0.001cm"
     stroke-linecap="round"
     stroke-linejoin="round"
     fill="none"
     id="path8"
     style="stroke:#ff0000;stroke-opacity:1" /><path
     d="m 34.686534,9.7954218 a 0.125,0.125 0 1 0 0.25,0 0.125,0.125 0 1 0 -0.25,0 z"
     stroke="#646464"
     stroke-width="0.001cm"
     stroke-linecap="round"
     stroke-linejoin="round"
     fill="none"
     id="path9"
     style="stroke:#ff0000;stroke-opacity:1" /><path
     d="m 31.486534,9.7954218 a 0.125,0.125 0 1 0 0.25,0 0.125,0.125 0 1 0 -0.25,0 z"
     stroke="#646464"
     stroke-width="0.001cm"
     stroke-linecap="round"
     stroke-linejoin="round"
     fill="none"
     id="path10"
     style="stroke:#ff0000;stroke-opacity:1" /><path
     d="m 34.686534,12.995422 a 0.125,0.125 0 1 0 0.25,0 0.125,0.125 0 1 0 -0.25,0 z"
     stroke="#646464"
     stroke-width="0.001cm"
     stroke-linecap="round"
     stroke-linejoin="round"
     fill="none"
     id="path11"
     style="stroke:#ff0000;stroke-opacity:1" /><path
     d="m 38.611534,13.695422 v -1.5 h 0.5 v 1.5 z"
     stroke="#646464"
     stroke-width="0.001cm"
     stroke-linecap="round"
     stroke-linejoin="round"
     fill="none"
     id="path12"
     style="stroke:#ff0000;stroke-opacity:1" /><path
     d="m 40.711534,3.8954218 h -15 V 18.895422 h 15 z"
     stroke="#646464"
     stroke-width="0.001cm"
     stroke-linecap="round"
     stroke-linejoin="round"
     fill="none"
     id="path13"
     style="stroke:#ff0000;stroke-opacity:1" /><path
     d="m 41.871621,9.8499412 a 0.1475,0.1475 0 1 0 0.295,0 0.1475,0.1475 0 1 0 -0.295,0 z"
     stroke="#646464"
     stroke-width="0.001cm"
     stroke-linecap="round"
     stroke-linejoin="round"
     fill="none"
     id="path14"
     style="stroke:#ff0000;stroke-opacity:1" /><path
     d="m 41.871621,12.949941 a 0.1475,0.1475 0 1 0 0.295,0 0.1475,0.1475 0 1 0 -0.295,0 z"
     stroke="#646464"
     stroke-width="0.001cm"
     stroke-linecap="round"
     stroke-linejoin="round"
     fill="none"
     id="path15"
     style="stroke:#ff0000;stroke-opacity:1" /><path
     d="m 44.971621,12.949941 a 0.1475,0.1475 0 1 0 0.295,0 0.1475,0.1475 0 1 0 -0.295,0 z"
     stroke="#646464"
     stroke-width="0.001cm"
     stroke-linecap="round"
     stroke-linejoin="round"
     fill="none"
     id="path16"
     style="stroke:#ff0000;stroke-opacity:1" /><path
     d="m 42.469121,11.399941 a 1.1,1.1 0 1 0 2.2,0 1.1,1.1 0 1 0 -2.2,0 z"
     stroke="#646464"
     stroke-width="0.001cm"
     stroke-linecap="round"
     stroke-linejoin="round"
     fill="none"
     id="path17"
     style="stroke:#ff0000;stroke-opacity:1" /><path
     d="m 44.971621,9.8499412 a 0.1475,0.1475 0 1 0 0.295,0 0.1475,0.1475 0 1 0 -0.295,0 z"
     stroke="#646464"
     stroke-width="0.001cm"
     stroke-linecap="round"
     stroke-linejoin="round"
     fill="none"
     id="path18"
     style="stroke:#ff0000;stroke-opacity:1" /><path
     d="m 42.769121,3.1999412 h -1.5 V 19.599941 h 1.5 v -0.5 h 1.6 v 0.5 h 1.5 V 3.1999412 h -1.5 v 0.5 h -1.6 z"
     stroke="#646464"
     stroke-width="0.001cm"
     stroke-linecap="round"
     stroke-linejoin="round"
     fill="none"
     id="path19"
     style="stroke:#ff0000;stroke-opacity:1" /><path
     d="m 35.954717,23.799621 a 0.1475,0.1475 0 1 0 0.295,0 0.1475,0.1475 0 1 0 -0.295,0 z"
     stroke="#646464"
     stroke-width="0.001cm"
     stroke-linecap="round"
     stroke-linejoin="round"
     fill="none"
     id="path20"
     style="stroke:#ff0000;stroke-opacity:1" /><path
     d="m 39.054717,23.799621 a 0.1475,0.1475 0 1 0 0.295,0 0.1475,0.1475 0 1 0 -0.295,0 z"
     stroke="#646464"
     stroke-width="0.001cm"
     stroke-linecap="round"
     stroke-linejoin="round"
     fill="none"
     id="path21"
     style="stroke:#ff0000;stroke-opacity:1" /><path
     d="m 39.054717,20.69962 a 0.1475,0.1475 0 1 0 0.295,0 0.1475,0.1475 0 1 0 -0.295,0 z"
     stroke="#646464"
     stroke-width="0.001cm"
     stroke-linecap="round"
     stroke-linejoin="round"
     fill="none"
     id="path22"
     style="stroke:#ff0000;stroke-opacity:1" /><path
     d="m 36.552217,22.249621 a 1.1,1.1 0 1 0 2.2,0 1.1,1.1 0 1 0 -2.2,0 z"
     stroke="#646464"
     stroke-width="0.001cm"
     stroke-linecap="round"
     stroke-linejoin="round"
     fill="none"
     id="path23"
     style="stroke:#ff0000;stroke-opacity:1" /><path
     d="m 35.954717,20.69962 a 0.1475,0.1475 0 1 0 0.295,0 0.1475,0.1475 0 1 0 -0.295,0 z"
     stroke="#646464"
     stroke-width="0.001cm"
     stroke-linecap="round"
     stroke-linejoin="round"
     fill="none"
     id="path24"
     style="stroke:#ff0000;stroke-opacity:1" /><path
     d="m 29.452217,23.049621 v 1.5 h 16.4 v -1.5 h -0.5 v -1.6 h 0.5 V 19.94962 h -16.4 v 1.500001 h 0.5 v 1.6 z"
     stroke="#646464"
     stroke-width="0.001cm"
     stroke-linecap="round"
     stroke-linejoin="round"
     fill="none"
     id="path25"
     style="stroke:#ff0000;stroke-opacity:1" /><path
     d="m 19.149575,23.244995 a 0.1475,0.1475 0 1 0 0.295,0 0.1475,0.1475 0 1 0 -0.295,0 z"
     stroke="#646464"
     stroke-width="0.001cm"
     stroke-linecap="round"
     stroke-linejoin="round"
     fill="none"
     id="path26"
     style="stroke:#ff0000;stroke-opacity:1" /><path
     d="m 22.249575,23.244995 a 0.1475,0.1475 0 1 0 0.295,0 0.1475,0.1475 0 1 0 -0.295,0 z"
     stroke="#646464"
     stroke-width="0.001cm"
     stroke-linecap="round"
     stroke-linejoin="round"
     fill="none"
     id="path27"
     style="stroke:#ff0000;stroke-opacity:1" /><path
     d="m 22.249575,20.144995 a 0.1475,0.1475 0 1 0 0.295,0 0.1475,0.1475 0 1 0 -0.295,0 z"
     stroke="#646464"
     stroke-width="0.001cm"
     stroke-linecap="round"
     stroke-linejoin="round"
     fill="none"
     id="path28"
     style="stroke:#ff0000;stroke-opacity:1" /><path
     d="m 19.747075,21.694995 a 1.1,1.1 0 1 0 2.2,0 1.1,1.1 0 1 0 -2.2,0 z"
     stroke="#646464"
     stroke-width="0.001cm"
     stroke-linecap="round"
     stroke-linejoin="round"
     fill="none"
     id="path29"
     style="stroke:#ff0000;stroke-opacity:1" /><path
     d="m 19.149575,20.144995 a 0.1475,0.1475 0 1 0 0.295,0 0.1475,0.1475 0 1 0 -0.295,0 z"
     stroke="#646464"
     stroke-width="0.001cm"
     stroke-linecap="round"
     stroke-linejoin="round"
     fill="none"
     id="path30"
     style="stroke:#ff0000;stroke-opacity:1" /><path
     d="m 12.647075,22.494995 v 1.5 h 16.4 v -1.5 h -0.5 v -1.6 h 0.5 v -1.5 h -16.4 v 1.5 h 0.5 v 1.6 z"
     stroke="#646464"
     stroke-width="0.001cm"
     stroke-linecap="round"
     stroke-linejoin="round"
     fill="none"
     id="path31"
     style="stroke:#ff0000;stroke-opacity:1" /><path
     d="m 11.726568,12.139959 h 0.5 v 1.5 h -0.5 z"
     stroke="#646464"
     stroke-width="0.001cm"
     stroke-linecap="round"
     stroke-linejoin="round"
     fill="none"
     id="path32"
     style="stroke:#ff0000;stroke-opacity:1" /><path
     d="m 16.826568,5.4399593 v 0.5 h -1.5 v -0.5 z"
     stroke="#646464"
     stroke-width="0.001cm"
     stroke-linecap="round"
     stroke-linejoin="round"
     fill="none"
     id="path33"
     style="stroke:#ff0000;stroke-opacity:1" /><path
     d="m 15.901568,12.939959 a 0.125,0.125 0 1 0 0.25,0 0.125,0.125 0 1 0 -0.25,0 z"
     stroke="#646464"
     stroke-width="0.001cm"
     stroke-linecap="round"
     stroke-linejoin="round"
     fill="none"
     id="path34"
     style="stroke:#ff0000;stroke-opacity:1" /><path
     d="M 11.726568,10.539959 V 9.0399593 h 0.5 v 1.4999997 z"
     stroke="#646464"
     stroke-width="0.001cm"
     stroke-linecap="round"
     stroke-linejoin="round"
     fill="none"
     id="path35"
     style="stroke:#ff0000;stroke-opacity:1" /><path
     d="m 23.526568,10.539959 h -0.5 V 9.0399593 h 0.5 z"
     stroke="#646464"
     stroke-width="0.001cm"
     stroke-linecap="round"
     stroke-linejoin="round"
     fill="none"
     id="path36"
     style="stroke:#ff0000;stroke-opacity:1" /><path
     d="m 19.926568,5.9399593 h -1.5 v -0.5 h 1.5 z"
     stroke="#646464"
     stroke-width="0.001cm"
     stroke-linecap="round"
     stroke-linejoin="round"
     fill="none"
     id="path37"
     style="stroke:#ff0000;stroke-opacity:1" /><path
     d="m 18.426568,17.239959 v -0.5 h 1.5 v 0.5 z"
     stroke="#646464"
     stroke-width="0.001cm"
     stroke-linecap="round"
     stroke-linejoin="round"
     fill="none"
     id="path38"
     style="stroke:#ff0000;stroke-opacity:1" /><path
     d="m 15.326568,16.739959 h 1.5 v 0.5 h -1.5 z"
     stroke="#646464"
     stroke-width="0.001cm"
     stroke-linecap="round"
     stroke-linejoin="round"
     fill="none"
     id="path39"
     style="stroke:#ff0000;stroke-opacity:1" /><path
     d="m 19.101568,9.7399593 a 0.125,0.125 0 1 0 0.25,0 0.125,0.125 0 1 0 -0.25,0 z"
     stroke="#646464"
     stroke-width="0.001cm"
     stroke-linecap="round"
     stroke-linejoin="round"
     fill="none"
     id="path40"
     style="stroke:#ff0000;stroke-opacity:1" /><path
     d="m 15.901568,9.7399593 a 0.125,0.125 0 1 0 0.25,0 0.125,0.125 0 1 0 -0.25,0 z"
     stroke="#646464"
     stroke-width="0.001cm"
     stroke-linecap="round"
     stroke-linejoin="round"
     fill="none"
     id="path41"
     style="stroke:#ff0000;stroke-opacity:1" /><path
     d="m 19.101568,12.939959 a 0.125,0.125 0 1 0 0.25,0 0.125,0.125 0 1 0 -0.25,0 z"
     stroke="#646464"
     stroke-width="0.001cm"
     stroke-linecap="round"
     stroke-linejoin="round"
     fill="none"
     id="path42"
     style="stroke:#ff0000;stroke-opacity:1" /><path
     d="m 23.026568,13.639959 v -1.5 h 0.5 v 1.5 z"
     stroke="#646464"
     stroke-width="0.001cm"
     stroke-linecap="round"
     stroke-linejoin="round"
     fill="none"
     id="path43"
     style="stroke:#ff0000;stroke-opacity:1" /><path
     d="m 25.126568,3.8399593 h -15 V 18.839959 h 15 z"
     stroke="#646464"
     stroke-width="0.001cm"
     stroke-linecap="round"
     stroke-linejoin="round"
     fill="none"
     id="path44"
     style="stroke:#ff0000;stroke-opacity:1" /><path
     d="m 5.8595462,14.303846 a 0.1475,0.1475 0 1 0 0.295,0 0.1475,0.1475 0 1 0 -0.295,0 z"
     stroke="#646464"
     stroke-width="0.001cm"
     stroke-linecap="round"
     stroke-linejoin="round"
     fill="none"
     id="path45"
     style="stroke:#ff0000;stroke-opacity:1" /><path
     d="m 5.8595462,17.403846 a 0.1475,0.1475 0 1 0 0.295,0 0.1475,0.1475 0 1 0 -0.295,0 z"
     stroke="#646464"
     stroke-width="0.001cm"
     stroke-linecap="round"
     stroke-linejoin="round"
     fill="none"
     id="path46"
     style="stroke:#ff0000;stroke-opacity:1" /><path
     d="m 8.9595462,17.403846 a 0.1475,0.1475 0 1 0 0.295,0 0.1475,0.1475 0 1 0 -0.295,0 z"
     stroke="#646464"
     stroke-width="0.001cm"
     stroke-linecap="round"
     stroke-linejoin="round"
     fill="none"
     id="path47"
     style="stroke:#ff0000;stroke-opacity:1" /><path
     d="m 6.4570462,15.853846 a 1.1,1.1 0 1 0 2.2,0 1.1,1.1 0 1 0 -2.2,0 z"
     stroke="#646464"
     stroke-width="0.001cm"
     stroke-linecap="round"
     stroke-linejoin="round"
     fill="none"
     id="path48"
     style="stroke:#ff0000;stroke-opacity:1" /><path
     d="m 8.9595462,14.303846 a 0.1475,0.1475 0 1 0 0.295,0 0.1475,0.1475 0 1 0 -0.295,0 z"
     stroke="#646464"
     stroke-width="0.001cm"
     stroke-linecap="round"
     stroke-linejoin="round"
     fill="none"
     id="path49"
     style="stroke:#ff0000;stroke-opacity:1" /><path
     d="m 6.7570462,7.6538464 h -1.5 V 24.053847 h 1.5 v -0.5 h 1.6 v 0.5 h 1.5 V 7.6538464 h -1.5 v 0.5 h -1.6 z"
     stroke="#646464"
     stroke-width="0.001cm"
     stroke-linecap="round"
     stroke-linejoin="round"
     fill="none"
     id="path50"
     style="stroke:#ff0000;stroke-opacity:1" /></svg>
